# xmcd
#
# Track frame offsets: 
#        150
#        14914
#        27407
#        34222
#        46178
#        60611
#        70007
#        85600
#        98243
#        109127
#        121460
#        141302
#        154794
#        168248
#        180361
#        190649
#
# Disc length: 2677 seconds
#
# Revision: 0
# Processed by: cddbd v1.5.2PL0 Copyright (c) Steve Scherf et al.
# Submitted via: ExactAudioCopy v0.95a5
#
DISCID=d10a7310
DTITLE=Various Artist - The best of Country and Western
DYEAR=1900
DGENRE=Country
TTITLE0=John Denver - Take me home country roads
TTITLE1=Lynn Anderson - Stand by your man
TTITLE2=Ferlin Husky - Lord, I hope this day is good
TTITLE3=John Denver - Ease the want in me
TTITLE4=Jim Reeves - Careless hands
TTITLE5=Loretta Lynn - Fist city
TTITLE6=Kenny Rogers - for the good times
TTITLE7=Joe Ann Houston - Blue. blue day
TTITLE8=Tom T. Hall - Fox on the run
TTITLE9=Lynn Anderson -You never can tell
TTITLE10=Wanda Jackson - Thirty nine and holding
TTITLE11=Lynn Anderson - Rose garden
TTITLE12=Loretta Lynn - Whispering Jesse
TTITLE13=Charley Pride - The last thing on my mind
TTITLE14=Jan Howard - I wish I could fall in love
TTITLE15=Don Gibson - Lonesome number one
EXTD=
EXTT0=
EXTT1=
EXTT2=
EXTT3=
EXTT4=
EXTT5=
EXTT6=
EXTT7=
EXTT8=
EXTT9=
EXTT10=
EXTT11=
EXTT12=
EXTT13=
EXTT14=
EXTT15=
PLAYORDER=
